P3
61 61
255
50 0 0 50 0 0 50 0 0 50 0 0 50 0 0 50 0 0 50 0 0 50 0 0 50 0 0 50 0 0 50 0 0 50 0 0 50 0 0 50 0 0 50 0 0 50 0 0 50 0 0 50 0 0 50 0 0 50 0 0 50 0 0 50 0 0 50 0 0 50 0 0 50 0 0 50 0 0 50 0 0 50 0 0 50 0 0 50 0 0 50 0 0 50 0 0 50 0 0 50 0 0 24 0 0 24 0 0 24 0 0 24 0 0 24 0 0 24 0 0 24 0 0 24 0 0 11 0 0 11 0 0 11 0 0 6 0 0 6 0 0 3 0 0 0 0 0 0 3 0 0 6 0 0 11 0 0 11 0 0 11 0 0 11 0 0 24 0 0 24 0 0 24 0 0 24 0 0 24 0 0 24 0 
50 0 0 50 0 0 50 0 0 50 0 0 50 0 0 50 0 0 50 0 0 50 0 0 50 0 0 50 0 0 50 0 0 50 0 0 50 0 0 50 0 0 50 0 0 50 0 0 50 0 0 50 0 0 50 0 0 50 0 0 50 0 0 50 0 0 50 0 0 50 0 0 50 0 0 50 0 0 50 0 0 50 0 0 50 0 0 50 0 0 50 0 0 50 0 0 50 0 0 50 0 0 50 0 0 24 0 0 24 0 0 24 0 0 24 0 0 24 0 0 24 0 0 24 0 0 11 0 0 11 0 0 11 0 0 6 0 0 6 0 0 3 0 0 0 0 0 0 3 0 0 6 0 0 11 0 0 11 0 0 11 0 0 24 0 0 24 0 0 24 0 0 24 0 0 24 0 0 24 0 0 24 0 
50 0 0 50 0 0 50 0 0 50 0 0 50 0 0 50 0 0 50 0 0 50 0 0 50 0 0 50 0 0 50 0 0 50 0 0 50 0 0 50 0 0 50 0 0 50 0 0 50 0 0 50 0 0 50 0 0 50 0 0 50 0 0 50 0 0 50 0 0 50 0 0 50 0 0 50 0 0 50 0 0 50 0 0 50 0 0 50 0 0 50 0 0 50 0 0 50 0 0 50 0 0 50 0 0 50 0 0 24 0 0 24 0 0 24 0 0 24 0 0 24 0 0 24 0 0 24 0 0 11 0 0 11 0 0 11 0 0 6 0 0 3 0 0 0 0 0 0 3 0 0 6 0 0 11 0 0 11 0 0 11 0 0 24 0 0 24 0 0 24 0 0 24 0 0 24 0 0 24 0 0 24 0 
50 0 0 50 0 0 50 0 0 50 0 0 50 0 0 50 0 0 50 0 0 50 0 0 50 0 0 50 0 0 50 0 0 50 0 0 50 0 0 50 0 0 50 0 0 50 0 0 50 0 0 50 0 0 50 0 0 50 0 0 50 0 0 50 0 0 50 0 0 50 0 0 50 0 0 50 0 0 50 0 0 50 0 0 50 0 0 50 0 0 50 0 0 50 0 0 50 0 0 50 0 0 50 0 0 50 0 0 50 0 0 24 0 0 24 0 0 24 0 0 24 0 0 24 0 0 24 0 0 11 0 0 11 0 0 11 0 0 6 0 0 3 0 0 0 0 0 0 3 0 0 6 0 0 11 0 0 11 0 0 11 0 0 24 0 0 24 0 0 24 0 0 24 0 0 24 0 0 24 0 0 50 0 
50 0 0 50 0 0 50 0 0 50 0 0 50 0 0 50 0 0 50 0 0 50 0 0 50 0 0 50 0 0 50 0 0 50 0 0 50 0 0 50 0 0 50 0 0 50 0 0 50 0 0 50 0 0 50 0 0 50 0 0 50 0 0 50 0 0 50 0 0 50 0 0 50 0 0 50 0 0 50 0 0 50 0 0 50 0 0 50 0 0 50 0 0 50 0 0 50 0 0 50 0 0 50 0 0 50 0 0 50 0 0 50 0 0 24 0 0 24 0 0 24 0 0 24 0 0 24 0 0 11 0 0 11 0 0 11 0 0 6 0 0 3 0 0 0 0 0 0 3 0 0 6 0 0 11 0 0 11 0 0 24 0 0 24 0 0 24 0 0 24 0 0 24 0 0 24 0 0 50 0 0 50 0 
50 0 0 50 0 0 50 0 0 50 0 0 50 0 0 50 0 0 50 0 0 50 0 0 50 0 0 50 0 0 50 0 0 50 0 0 50 0 0 50 0 0 50 0 0 50 0 0 50 0 0 50 0 0 50 0 0 50 0 0 50 0 0 50 0 0 50 0 0 50 0 0 50 0 0 50 0 0 50 0 0 50 0 0 50 0 0 50 0 0 50 0 0 50 0 0 50 0 0 50 0 0 50 0 0 50 0 0 50 0 0 50 0 0 24 0 0 24 0 0 24 0 0 24 0 0 24 0 0 24 0 0 11 0 0 11 0 0 6 0 0 3 0 0 0 0 0 0 6 0 0 6 0 0 11 0 0 11 0 0 24 0 0 24 0 0 24 0 0 24 0 0 24 0 0 50 0 0 50 0 0 50 0 
50 0 0 50 0 0 50 0 0 50 0 0 50 0 0 50 0 0 50 0 0 50 0 0 50 0 0 50 0 0 50 0 0 50 0 0 50 0 0 50 0 0 50 0 0 50 0 0 50 0 0 50 0 0 50 0 0 50 0 0 50 0 0 50 0 0 50 0 0 50 0 0 50 0 0 50 0 0 50 0 0 50 0 0 50 0 0 50 0 0 50 0 0 50 0 0 50 0 0 50 0 0 50 0 0 50 0 0 50 0 0 50 0 0 50 0 0 24 0 0 24 0 0 24 0 0 24 0 0 24 0 0 11 0 0 11 0 0 6 0 0 3 0 0 0 0 0 0 6 0 0 11 0 0 11 0 0 11 0 0 24 0 0 24 0 0 24 0 0 24 0 0 24 0 0 50 0 0 50 0 0 50 0 
50 0 0 50 0 0 50 0 0 50 0 0 50 0 0 50 0 0 50 0 0 50 0 0 50 0 0 50 0 0 50 0 0 50 0 0 50 0 0 50 0 0 50 0 0 50 0 0 50 0 0 50 0 0 50 0 0 50 0 0 50 0 0 50 0 0 50 0 0 50 0 0 50 0 0 50 0 0 50 0 0 50 0 0 50 0 0 50 0 0 50 0 0 50 0 0 50 0 0 50 0 0 50 0 0 50 0 0 50 0 0 50 0 0 50 0 0 50 0 0 24 0 0 24 0 0 24 0 0 24 0 0 11 0 0 11 0 0 6 0 0 3 0 0 0 0 0 0 6 0 0 11 0 0 11 0 0 24 0 0 24 0 0 24 0 0 24 0 0 24 0 0 50 0 0 50 0 0 50 0 0 50 0 
50 0 0 50 0 0 50 0 0 50 0 0 50 0 0 50 0 0 50 0 0 50 0 0 50 0 0 50 0 0 50 0 0 50 0 0 50 0 0 50 0 0 50 0 0 50 0 0 50 0 0 50 0 0 50 0 0 50 0 0 50 0 0 50 0 0 50 0 0 50 0 0 50 0 0 50 0 0 50 0 0 50 0 0 50 0 0 50 0 0 50 0 0 50 0 0 50 0 0 50 0 0 50 0 0 50 0 0 50 0 0 50 0 0 50 0 0 50 0 0 24 0 0 24 0 0 24 0 0 24 0 0 11 0 0 11 0 0 6 0 0 3 0 0 0 0 0 0 6 0 0 11 0 0 11 0 0 24 0 0 24 0 0 24 0 0 24 0 0 50 0 0 50 0 0 50 0 0 50 0 0 50 0 
50 0 0 50 0 0 50 0 0 50 0 0 50 0 0 50 0 0 50 0 0 50 0 0 50 0 0 50 0 0 50 0 0 50 0 0 50 0 0 50 0 0 50 0 0 50 0 0 50 0 0 50 0 0 50 0 0 50 0 0 50 0 0 50 0 0 50 0 0 50 0 0 50 0 0 50 0 0 50 0 0 50 0 0 50 0 0 50 0 0 50 0 0 50 0 0 50 0 0 50 0 0 50 0 0 50 0 0 50 0 0 50 0 0 50 0 0 50 0 0 50 0 0 24 0 0 24 0 0 24 0 0 24 0 0 11 0 0 11 0 0 3 0 0 0 0 0 0 6 0 0 11 0 0 11 0 0 24 0 0 24 0 0 24 0 0 24 0 0 50 0 0 50 0 0 50 0 0 50 0 0 50 0 
50 0 0 50 0 0 50 0 0 50 0 0 50 0 0 50 0 0 50 0 0 50 0 0 50 0 0 50 0 0 50 0 0 50 0 0 50 0 0 50 0 0 50 0 0 50 0 0 50 0 0 147 0 0 147 0 0 147 0 0 147 0 0 147 0 0 147 0 0 147 0 0 147 0 0 147 0 0 147 0 0 147 0 0 147 0 0 50 0 0 50 0 0 50 0 0 50 0 0 50 0 0 50 0 0 50 0 0 50 0 0 50 0 0 50 0 0 50 0 0 50 0 0 24 0 0 24 0 0 24 0 0 24 0 0 11 0 0 11 0 0 3 0 0 0 0 0 0 6 0 0 11 0 0 11 0 0 24 0 0 24 0 0 24 0 0 50 0 0 50 0 0 50 0 0 50 0 0 50 0 0 50 0 
50 0 0 50 0 0 50 0 0 50 0 0 50 0 0 50 0 0 50 0 0 50 0 0 50 0 0 50 0 0 50 0 0 50 0 0 50 0 0 50 0 0 147 0 0 147 0 0 147 0 0 147 0 0 147 0 0 147 0 0 147 0 0 147 0 0 147 0 0 147 0 0 147 0 0 147 0 0 147 0 0 147 0 0 147 0 0 147 0 0 147 0 0 147 0 0 50 0 0 50 0 0 50 0 0 50 0 0 50 0 0 50 0 0 50 0 0 50 0 0 50 0 0 50 0 0 24 0 0 24 0 0 24 0 0 11 0 0 11 0 0 6 0 0 0 0 0 0 6 0 0 11 0 0 24 0 0 24 0 0 24 0 0 24 0 0 50 0 0 50 0 0 50 0 0 50 0 0 50 0 0 50 0 
50 0 0 50 0 0 50 0 0 50 0 0 50 0 0 50 0 0 50 0 0 50 0 0 50 0 0 50 0 0 50 0 0 50 0 0 147 0 0 147 0 0 147 0 0 147 0 0 147 0 0 147 0 0 147 0 0 147 0 0 147 0 0 147 0 0 147 0 0 147 0 0 147 0 0 147 0 0 147 0 0 147 0 0 147 0 0 147 0 0 147 0 0 147 0 0 147 0 0 147 0 0 50 0 0 50 0 0 50 0 0 50 0 0 50 0 0 50 0 0 50 0 0 50 0 0 24 0 0 24 0 0 24 0 0 11 0 0 11 0 0 6 0 0 0 1 0 0 6 0 0 11 0 0 24 0 0 24 0 0 24 0 0 50 0 0 50 0 0 50 0 0 50 0 0 50 0 0 50 0 0 50 0 
50 0 0 50 0 0 50 0 0 50 0 0 50 0 0 50 0 0 50 0 0 50 0 0 50 0 0 50 0 0 50 0 0 147 0 0 147 0 0 147 0 0 147 0 0 147 0 0 147 0 0 147 0 0 147 0 0 147 0 0 147 0 0 147 0 0 147 0 0 147 0 0 147 0 0 147 0 0 147 0 0 147 0 0 147 0 0 147 0 0 147 0 0 147 0 0 147 0 0 147 0 0 147 0 0 50 0 0 50 0 0 50 0 0 50 0 0 50 0 0 50 0 0 50 0 0 50 0 0 24 0 0 24 0 0 24 0 0 11 0 0 6 0 0 0 1 0 0 6 0 0 11 0 0 24 0 0 24 0 0 24 0 0 50 0 0 50 0 0 50 0 0 50 0 0 50 0 0 50 0 0 50 0 
50 0 0 50 0 0 50 0 0 50 0 0 50 0 0 50 0 0 50 0 0 50 0 0 50 0 0 50 0 0 147 0 0 147 0 0 147 0 0 147 0 0 147 0 0 147 0 0 147 0 0 147 0 0 147 0 0 147 0 0 147 0 0 147 0 0 147 0 0 147 0 0 147 0 0 147 0 0 147 0 0 147 0 0 147 0 0 147 0 0 147 0 0 147 0 0 147 0 0 147 0 0 147 0 0 147 0 0 147 0 0 50 0 0 50 0 0 50 0 0 50 0 0 50 0 0 50 0 0 24 0 0 24 0 0 24 0 0 11 0 0 6 0 0 0 1 0 0 6 0 0 11 0 0 24 0 0 24 0 0 24 0 0 50 0 0 50 0 0 50 0 0 50 0 0 50 0 0 50 0 0 147 0 
50 0 0 50 0 0 50 0 0 50 0 0 50 0 0 50 0 0 50 0 0 50 0 0 50 0 0 147 0 0 147 0 0 147 0 0 147 0 0 147 0 0 147 0 0 147 0 0 147 0 0 147 0 0 147 0 0 147 0 0 147 0 0 147 0 0 147 0 0 147 0 0 147 0 0 147 0 0 147 0 0 147 0 0 147 0 0 147 0 0 147 0 0 147 0 0 147 0 0 147 0 0 147 0 0 147 0 0 147 0 0 147 0 0 50 0 0 50 0 0 50 0 0 50 0 0 50 0 0 24 0 0 24 0 0 24 0 0 11 0 0 6 0 0 0 1 0 0 11 0 0 11 0 0 24 0 0 24 0 0 50 0 0 50 0 0 50 0 0 50 0 0 50 0 0 50 0 0 147 0 0 147 0 
50 0 0 50 0 0 50 0 0 50 0 0 50 0 0 50 0 0 50 0 0 50 0 0 147 0 0 147 0 0 147 0 0 147 0 0 147 0 0 147 0 0 147 0 0 147 0 0 147 0 0 147 0 0 147 0 0 147 0 0 147 0 0 147 0 0 147 0 0 147 0 0 147 0 0 147 0 0 147 0 0 147 0 0 147 0 0 147 0 0 147 0 0 147 0 0 147 0 0 147 0 0 147 0 0 147 0 0 147 0 0 147 0 0 147 0 0 50 0 0 50 0 0 50 0 0 50 0 0 50 0 0 24 0 0 24 0 0 11 0 0 6 0 0 0 1 0 0 11 0 0 11 0 0 24 0 0 24 0 0 50 0 0 50 0 0 50 0 0 50 0 0 50 0 0 147 0 0 147 0 0 147 0 
50 0 0 50 0 0 50 0 0 50 0 0 50 0 0 50 0 0 50 0 0 147 0 0 147 0 0 147 0 0 147 0 0 147 0 0 147 0 0 147 0 0 147 0 0 147 0 0 147 0 0 147 0 0 147 0 0 147 0 0 147 0 0 147 0 0 147 0 0 147 0 0 147 0 0 147 0 0 147 0 0 147 0 0 147 0 0 147 0 0 147 0 0 147 0 0 147 0 0 147 0 0 147 0 0 147 0 0 147 0 0 147 0 0 147 0 0 50 0 0 50 0 0 50 0 0 50 0 0 50 0 0 24 0 0 24 0 0 11 0 0 6 0 0 0 1 0 0 11 0 0 24 0 0 24 0 0 50 0 0 50 0 0 50 0 0 50 0 0 50 0 0 147 0 0 147 0 0 147 0 0 147 0 
50 0 0 50 0 0 50 0 0 50 0 0 50 0 0 50 0 0 147 0 0 147 0 0 147 0 0 147 0 0 147 0 0 147 0 0 147 0 0 147 0 0 147 0 0 147 0 0 147 0 0 147 0 0 147 0 0 147 0 0 147 0 0 147 0 0 147 0 0 147 0 0 147 0 0 147 0 0 147 0 0 147 0 0 147 0 0 147 0 0 147 0 0 147 0 0 147 0 0 147 0 0 147 0 0 147 0 0 147 0 0 147 0 0 147 0 0 147 0 0 50 0 0 50 0 0 50 0 0 50 0 0 24 0 0 24 0 0 11 0 0 6 0 0 0 1 0 0 11 0 0 24 0 0 24 0 0 50 0 0 50 0 0 50 0 0 50 0 0 147 0 0 147 0 0 147 0 0 147 0 0 147 0 
50 0 0 50 0 0 50 0 0 50 0 0 50 0 0 147 0 0 147 0 0 147 0 0 147 0 0 147 0 0 147 0 0 147 0 0 147 0 0 147 0 0 147 0 0 147 0 0 147 0 0 147 0 0 147 0 0 147 0 0 147 0 0 147 0 0 147 0 0 147 0 0 147 0 0 147 0 0 147 0 0 147 0 0 147 0 0 147 0 0 147 0 0 147 0 0 147 0 0 147 0 0 147 0 0 147 0 0 147 0 0 147 0 0 147 0 0 147 0 0 147 0 0 50 0 0 50 0 0 50 0 0 50 0 0 24 0 0 24 0 0 6 0 0 0 1 0 0 11 0 0 24 0 0 24 0 0 50 0 0 50 0 0 50 0 0 50 0 0 147 0 0 147 0 0 147 0 0 147 0 0 147 0 
50 0 0 50 0 0 50 0 0 50 0 0 50 0 0 147 0 0 147 0 0 147 0 0 147 0 0 147 0 0 147 0 0 147 0 0 147 0 0 147 0 0 147 0 0 147 0 0 147 0 0 147 0 0 147 0 0 147 0 0 147 0 0 147 0 0 147 0 0 147 0 0 147 0 0 147 0 0 147 0 0 147 0 0 147 0 0 147 0 0 147 0 0 147 0 0 147 0 0 147 0 0 147 0 0 147 0 0 147 0 0 147 0 0 147 0 0 147 0 0 147 0 0 50 0 0 50 0 0 50 0 0 50 0 0 24 0 0 24 0 0 6 0 0 0 1 0 0 11 0 0 24 0 0 24 0 0 50 0 0 50 0 0 50 0 0 147 0 0 147 0 0 147 0 0 147 0 0 147 0 0 147 0 
50 0 0 50 0 0 50 0 0 50 0 0 147 0 0 147 0 0 147 0 0 147 0 0 147 0 0 147 0 0 147 0 0 147 0 0 147 0 0 147 0 0 147 0 0 147 0 0 147 0 0 147 0 0 147 0 0 147 0 0 147 0 0 147 0 0 147 0 0 147 0 0 147 0 0 147 0 0 147 0 0 147 0 0 147 0 0 147 0 0 147 0 0 147 0 0 147 0 0 147 0 0 147 0 0 147 0 0 147 0 0 147 0 0 147 0 0 147 0 0 147 0 0 147 0 0 50 0 0 50 0 0 50 0 0 24 0 0 24 0 0 11 0 0 0 1 0 0 11 0 0 24 0 0 50 0 0 50 0 0 50 0 0 50 0 0 147 0 0 147 0 0 147 0 0 147 0 0 147 0 0 147 0 
50 0 0 50 0 0 50 0 0 50 0 0 147 0 0 147 0 0 147 0 0 147 0 0 147 0 0 147 0 0 147 0 0 147 0 0 147 0 0 147 0 0 147 0 0 147 0 0 147 0 0 147 0 0 147 0 0 147 0 0 147 0 0 147 0 0 147 0 0 147 0 0 147 0 0 147 0 0 147 0 0 147 0 0 235 0 0 235 0 0 235 0 0 235 0 0 235 0 0 235 0 0 235 0 0 147 0 0 147 0 0 147 0 0 147 0 0 147 0 0 147 0 0 147 0 0 50 0 0 50 0 0 50 0 0 24 0 0 24 0 0 11 0 0 0 3 0 0 11 0 0 24 0 0 50 0 0 50 0 0 50 0 0 147 0 0 147 0 0 147 0 0 147 0 0 147 0 0 147 0 0 147 0 
50 0 0 50 0 0 50 0 0 147 0 0 147 0 0 147 0 0 147 0 0 147 0 0 147 0 0 147 0 0 147 0 0 147 0 0 147 0 0 147 0 0 147 0 0 147 0 0 147 0 0 147 0 0 147 0 0 147 0 0 147 0 0 147 0 0 147 0 0 147 0 0 147 0 0 147 0 0 147 0 0 235 0 0 235 0 0 235 0 0 235 0 0 235 0 0 235 0 0 235 0 0 235 0 0 235 0 0 235 0 0 147 0 0 147 0 0 147 0 0 147 0 0 147 0 0 147 0 0 50 0 0 50 0 0 50 0 0 24 0 0 11 0 0 0 3 0 0 11 0 0 24 0 0 50 0 0 50 0 0 50 0 0 147 0 0 147 0 0 147 0 0 147 0 0 147 0 0 147 0 0 235 0 
50 0 0 50 0 0 50 0 0 147 0 0 147 0 0 147 0 0 147 0 0 147 0 0 147 0 0 147 0 0 147 0 0 147 0 0 147 0 0 147 0 0 147 0 0 147 0 0 147 0 0 147 0 0 147 0 0 147 0 0 147 0 0 147 0 0 147 0 0 147 0 0 147 0 0 147 0 0 235 0 0 235 0 0 235 0 0 235 0 0 235 0 0 235 0 0 235 0 0 235 0 0 235 0 0 235 0 0 235 0 0 235 0 0 147 0 0 147 0 0 147 0 0 147 0 0 147 0 0 50 0 0 50 0 0 50 0 0 24 0 0 11 0 0 0 3 0 0 11 0 0 24 0 0 50 0 0 50 0 0 147 0 0 147 0 0 147 0 0 147 0 0 147 0 0 147 0 0 235 0 0 235 0 
50 0 0 50 0 0 50 0 0 147 0 0 147 0 0 147 0 0 147 0 0 147 0 0 147 0 0 147 0 0 147 0 0 147 0 0 147 0 0 147 0 0 147 0 0 147 0 0 147 0 0 147 0 0 147 0 0 147 0 0 147 0 0 147 0 0 147 0 0 147 0 0 147 0 0 235 0 0 235 0 0 235 0 0 235 0 0 235 0 0 235 0 0 235 0 0 235 0 0 235 0 0 235 0 0 235 0 0 235 0 0 235 0 0 235 0 0 147 0 0 147 0 0 147 0 0 147 0 0 50 0 0 50 0 0 50 0 0 24 0 0 11 0 0 0 3 0 0 11 0 0 24 0 0 50 0 0 50 0 0 147 0 0 147 0 0 147 0 0 147 0 0 147 0 0 235 0 0 235 0 0 235 0 
50 0 0 50 0 0 50 0 0 147 0 0 147 0 0 147 0 0 147 0 0 147 0 0 147 0 0 147 0 0 147 0 0 147 0 0 147 0 0 147 0 0 147 0 0 147 0 0 147 0 0 147 0 0 147 0 0 147 0 0 147 0 0 147 0 0 147 0 0 147 0 0 235 0 0 235 0 0 235 0 0 235 0 0 235 0 0 235 0 0 235 0 0 235 0 0 235 0 0 235 0 0 235 0 0 235 0 0 235 0 0 235 0 0 235 0 0 147 0 0 147 0 0 147 0 0 147 0 0 147 0 0 50 0 0 50 0 0 24 0 0 11 0 0 0 3 0 0 11 0 0 24 0 0 50 0 0 50 0 0 147 0 0 147 0 0 147 0 0 147 0 0 235 0 0 235 0 0 235 0 0 235 0 
50 0 0 50 0 0 147 0 0 147 0 0 147 0 0 147 0 0 147 0 0 147 0 0 147 0 0 147 0 0 147 0 0 147 0 0 147 0 0 147 0 0 147 0 0 147 0 0 147 0 0 147 0 0 147 0 0 147 0 0 147 0 0 147 0 0 147 0 0 147 0 0 235 0 0 235 0 0 235 0 0 235 0 0 235 0 0 235 0 0 235 0 0 235 0 0 235 0 0 235 0 0 235 0 0 235 0 0 235 0 0 235 0 0 235 0 0 235 0 0 147 0 0 147 0 0 147 0 0 147 0 0 50 0 0 50 0 0 24 0 0 11 0 0 0 3 0 0 24 0 0 24 0 0 50 0 0 50 0 0 147 0 0 147 0 0 147 0 0 147 0 0 235 0 0 235 0 0 235 0 0 235 0 
50 0 0 50 0 0 147 0 0 147 0 0 147 0 0 147 0 0 147 0 0 147 0 0 147 0 0 147 0 0 147 0 0 147 0 0 147 0 0 147 0 0 147 0 0 147 0 0 147 0 0 147 0 0 147 0 0 147 0 0 147 0 0 147 0 0 147 0 0 235 0 0 235 0 0 235 0 0 235 0 0 235 0 0 235 0 0 235 0 0 235 0 0 235 0 0 235 0 0 253 0 0 253 0 0 235 0 0 235 0 0 235 0 0 235 0 0 235 0 0 147 0 0 147 0 0 147 0 0 147 0 0 50 0 0 50 0 0 24 0 0 11 0 0 0 3 0 0 24 0 0 24 0 0 50 0 0 50 0 0 147 0 0 147 0 0 147 0 0 235 0 0 235 0 0 235 0 0 235 0 0 235 0 
50 0 0 50 0 0 147 0 0 147 0 0 147 0 0 147 0 0 147 0 0 147 0 0 147 0 0 147 0 0 147 0 0 147 0 0 147 0 0 147 0 0 147 0 0 147 0 0 147 0 0 147 0 0 147 0 0 147 0 0 147 0 0 147 0 0 147 0 0 235 0 0 235 0 0 235 0 0 235 0 0 235 0 0 235 0 0 235 0 0 235 0 0 235 0 0 253 0 0 253 0 0 253 0 0 253 0 0 235 0 0 235 0 0 235 0 0 235 0 0 147 0 0 147 0 0 147 0 0 147 0 0 50 0 0 50 0 0 24 0 0 11 0 0 0 3 0 0 24 0 0 24 0 0 50 0 0 50 0 0 147 0 0 147 0 0 147 0 0 235 0 0 235 0 0 235 0 0 235 0 0 235 0 
50 0 0 50 0 0 147 0 0 147 0 0 147 0 0 147 0 0 147 0 0 147 0 0 147 0 0 147 0 0 147 0 0 147 0 0 147 0 0 147 0 0 147 0 0 147 0 0 147 0 0 147 0 0 147 0 0 147 0 0 147 0 0 147 0 0 147 0 0 235 0 0 235 0 0 235 0 0 235 0 0 235 0 0 235 0 0 235 0 0 235 0 0 235 0 0 253 0 0 253 0 0 253 0 0 253 0 0 235 0 0 235 0 0 235 0 0 235 0 0 147 0 0 147 0 0 147 0 0 147 0 0 50 0 0 50 0 0 24 0 0 11 0 0 0 3 0 0 24 0 0 24 0 0 50 0 0 50 0 0 147 0 0 147 0 0 147 0 0 235 0 0 235 0 0 235 0 0 235 0 0 253 0 
50 0 0 50 0 0 147 0 0 147 0 0 147 0 0 147 0 0 147 0 0 147 0 0 147 0 0 147 0 0 147 0 0 147 0 0 147 0 0 147 0 0 147 0 0 147 0 0 147 0 0 147 0 0 147 0 0 147 0 0 147 0 0 147 0 0 147 0 0 235 0 0 235 0 0 235 0 0 235 0 0 235 0 0 235 0 0 235 0 0 235 0 0 235 0 0 253 0 0 253 0 0 253 0 0 253 0 0 235 0 0 235 0 0 235 0 0 235 0 0 147 0 0 147 0 0 147 0 0 147 0 0 50 0 0 50 0 0 24 0 0 11 0 0 0 3 0 0 24 0 0 24 0 0 50 0 0 50 0 0 147 0 0 147 0 0 147 0 0 235 0 0 235 0 0 235 0 0 235 0 0 235 0 
50 0 0 50 0 0 147 0 0 147 0 0 147 0 0 147 0 0 147 0 0 147 0 0 147 0 0 147 0 0 147 0 0 147 0 0 147 0 0 147 0 0 147 0 0 147 0 0 147 0 0 147 0 0 147 0 0 147 0 0 147 0 0 147 0 0 147 0 0 235 0 0 235 0 0 235 0 0 235 0 0 235 0 0 235 0 0 235 0 0 235 0 0 235 0 0 235 0 0 253 0 0 253 0 0 235 0 0 235 0 0 235 0 0 235 0 0 235 0 0 147 0 0 147 0 0 147 0 0 147 0 0 50 0 0 50 0 0 24 0 0 11 0 0 0 3 0 0 24 0 0 24 0 0 50 0 0 50 0 0 147 0 0 147 0 0 147 0 0 235 0 0 235 0 0 235 0 0 235 0 0 235 0 
50 0 0 50 0 0 147 0 0 147 0 0 147 0 0 147 0 0 147 0 0 147 0 0 147 0 0 147 0 0 147 0 0 147 0 0 147 0 0 147 0 0 147 0 0 147 0 0 147 0 0 147 0 0 147 0 0 147 0 0 147 0 0 147 0 0 147 0 0 147 0 0 235 0 0 235 0 0 235 0 0 235 0 0 235 0 0 235 0 0 235 0 0 235 0 0 235 0 0 235 0 0 235 0 0 235 0 0 235 0 0 235 0 0 235 0 0 235 0 0 147 0 0 147 0 0 147 0 0 147 0 0 50 0 0 50 0 0 24 0 0 11 0 0 0 3 0 0 24 0 0 24 0 0 50 0 0 50 0 0 147 0 0 147 0 0 147 0 0 147 0 0 235 0 0 235 0 0 235 0 0 235 0 
50 0 0 50 0 0 50 0 0 147 0 0 147 0 0 147 0 0 147 0 0 147 0 0 147 0 0 147 0 0 147 0 0 147 0 0 147 0 0 147 0 0 147 0 0 147 0 0 147 0 0 147 0 0 147 0 0 147 0 0 147 0 0 147 0 0 147 0 0 147 0 0 235 0 0 235 0 0 235 0 0 235 0 0 235 0 0 235 0 0 235 0 0 235 0 0 235 0 0 235 0 0 235 0 0 235 0 0 235 0 0 235 0 0 235 0 0 147 0 0 147 0 0 147 0 0 147 0 0 147 0 0 50 0 0 50 0 0 24 0 0 11 0 0 0 3 0 0 11 0 0 24 0 0 50 0 0 50 0 0 147 0 0 147 0 0 147 0 0 147 0 0 235 0 0 235 0 0 235 0 0 235 0 
50 0 0 50 0 0 50 0 0 147 0 0 147 0 0 147 0 0 147 0 0 147 0 0 147 0 0 147 0 0 147 0 0 147 0 0 147 0 0 147 0 0 147 0 0 147 0 0 147 0 0 147 0 0 147 0 0 147 0 0 147 0 0 147 0 0 147 0 0 147 0 0 147 0 0 235 0 0 235 0 0 235 0 0 235 0 0 235 0 0 235 0 0 235 0 0 235 0 0 235 0 0 235 0 0 235 0 0 235 0 0 235 0 0 235 0 0 147 0 0 147 0 0 147 0 0 147 0 0 50 0 0 50 0 0 50 0 0 24 0 0 11 0 0 0 3 0 0 11 0 0 24 0 0 50 0 0 50 0 0 147 0 0 147 0 0 147 0 0 147 0 0 147 0 0 235 0 0 235 0 0 235 0 
50 0 0 50 0 0 50 0 0 147 0 0 147 0 0 147 0 0 147 0 0 147 0 0 147 0 0 147 0 0 147 0 0 147 0 0 147 0 0 147 0 0 147 0 0 147 0 0 147 0 0 147 0 0 147 0 0 147 0 0 147 0 0 147 0 0 147 0 0 147 0 0 147 0 0 147 0 0 235 0 0 235 0 0 235 0 0 235 0 0 235 0 0 235 0 0 235 0 0 235 0 0 235 0 0 235 0 0 235 0 0 235 0 0 147 0 0 147 0 0 147 0 0 147 0 0 147 0 0 50 0 0 50 0 0 50 0 0 24 0 0 11 0 0 0 3 0 0 11 0 0 24 0 0 50 0 0 50 0 0 147 0 0 147 0 0 147 0 0 147 0 0 147 0 0 147 0 0 235 0 0 235 0 
50 0 0 50 0 0 50 0 0 147 0 0 147 0 0 147 0 0 147 0 0 147 0 0 147 0 0 147 0 0 147 0 0 147 0 0 147 0 0 147 0 0 147 0 0 147 0 0 147 0 0 147 0 0 147 0 0 147 0 0 147 0 0 147 0 0 147 0 0 147 0 0 147 0 0 147 0 0 147 0 0 235 0 0 235 0 0 235 0 0 235 0 0 235 0 0 235 0 0 235 0 0 235 0 0 235 0 0 235 0 0 147 0 0 147 0 0 147 0 0 147 0 0 147 0 0 147 0 0 50 0 0 50 0 0 50 0 0 24 0 0 11 0 0 0 3 0 0 11 0 0 24 0 0 50 0 0 50 0 0 50 0 0 147 0 0 147 0 0 147 0 0 147 0 0 147 0 0 147 0 0 235 0 
50 0 0 50 0 0 50 0 0 50 0 0 147 0 0 147 0 0 147 0 0 147 0 0 147 0 0 147 0 0 147 0 0 147 0 0 147 0 0 147 0 0 147 0 0 147 0 0 147 0 0 147 0 0 147 0 0 147 0 0 147 0 0 147 0 0 147 0 0 147 0 0 147 0 0 147 0 0 147 0 0 147 0 0 235 0 0 235 0 0 235 0 0 235 0 0 235 0 0 235 0 0 235 0 0 147 0 0 147 0 0 147 0 0 147 0 0 147 0 0 147 0 0 147 0 0 50 0 0 50 0 0 50 0 0 24 0 0 24 0 0 11 0 0 0 3 0 0 11 0 0 24 0 0 50 0 0 50 0 0 50 0 0 147 0 0 147 0 0 147 0 0 147 0 0 147 0 0 147 0 0 147 0 
50 0 0 50 0 0 50 0 0 50 0 0 147 0 0 147 0 0 147 0 0 147 0 0 147 0 0 147 0 0 147 0 0 147 0 0 147 0 0 147 0 0 147 0 0 147 0 0 147 0 0 147 0 0 147 0 0 147 0 0 147 0 0 147 0 0 147 0 0 147 0 0 147 0 0 147 0 0 147 0 0 147 0 0 147 0 0 147 0 0 147 0 0 147 0 0 147 0 0 147 0 0 147 0 0 147 0 0 147 0 0 147 0 0 147 0 0 147 0 0 147 0 0 147 0 0 50 0 0 50 0 0 50 0 0 24 0 0 24 0 0 11 0 0 0 1 0 0 11 0 0 24 0 0 50 0 0 50 0 0 50 0 0 50 0 0 147 0 0 147 0 0 147 0 0 147 0 0 147 0 0 147 0 
50 0 0 50 0 0 50 0 0 50 0 0 50 0 0 147 0 0 147 0 0 147 0 0 147 0 0 147 0 0 147 0 0 147 0 0 147 0 0 147 0 0 147 0 0 147 0 0 147 0 0 147 0 0 147 0 0 147 0 0 147 0 0 147 0 0 147 0 0 147 0 0 147 0 0 147 0 0 147 0 0 147 0 0 147 0 0 147 0 0 147 0 0 147 0 0 147 0 0 147 0 0 147 0 0 147 0 0 147 0 0 147 0 0 147 0 0 147 0 0 147 0 0 50 0 0 50 0 0 50 0 0 50 0 0 24 0 0 24 0 0 6 0 0 0 1 0 0 11 0 0 24 0 0 24 0 0 50 0 0 50 0 0 50 0 0 147 0 0 147 0 0 147 0 0 147 0 0 147 0 0 147 0 
50 0 0 50 0 0 50 0 0 50 0 0 50 0 0 147 0 0 147 0 0 147 0 0 147 0 0 147 0 0 147 0 0 147 0 0 147 0 0 147 0 0 147 0 0 147 0 0 147 0 0 147 0 0 147 0 0 147 0 0 147 0 0 147 0 0 147 0 0 147 0 0 147 0 0 147 0 0 147 0 0 147 0 0 147 0 0 147 0 0 147 0 0 147 0 0 147 0 0 147 0 0 147 0 0 147 0 0 147 0 0 147 0 0 147 0 0 147 0 0 147 0 0 50 0 0 50 0 0 50 0 0 50 0 0 24 0 0 24 0 0 6 0 0 0 1 0 0 11 0 0 24 0 0 24 0 0 50 0 0 50 0 0 50 0 0 50 0 0 147 0 0 147 0 0 147 0 0 147 0 0 147 0 
50 0 0 50 0 0 50 0 0 50 0 0 50 0 0 50 0 0 147 0 0 147 0 0 147 0 0 147 0 0 147 0 0 147 0 0 147 0 0 147 0 0 147 0 0 147 0 0 147 0 0 147 0 0 147 0 0 147 0 0 147 0 0 147 0 0 147 0 0 147 0 0 147 0 0 147 0 0 147 0 0 147 0 0 147 0 0 147 0 0 147 0 0 147 0 0 147 0 0 147 0 0 147 0 0 147 0 0 147 0 0 147 0 0 147 0 0 147 0 0 50 0 0 50 0 0 50 0 0 50 0 0 24 0 0 24 0 0 11 0 0 6 0 0 0 1 0 0 11 0 0 24 0 0 24 0 0 50 0 0 50 0 0 50 0 0 50 0 0 147 0 0 147 0 0 147 0 0 147 0 0 147 0 
50 0 0 50 0 0 50 0 0 50 0 0 50 0 0 50 0 0 50 0 0 147 0 0 147 0 0 147 0 0 147 0 0 147 0 0 147 0 0 147 0 0 147 0 0 147 0 0 147 0 0 147 0 0 147 0 0 147 0 0 147 0 0 147 0 0 147 0 0 147 0 0 147 0 0 147 0 0 147 0 0 147 0 0 147 0 0 147 0 0 147 0 0 147 0 0 147 0 0 147 0 0 147 0 0 147 0 0 147 0 0 147 0 0 147 0 0 50 0 0 50 0 0 50 0 0 50 0 0 50 0 0 24 0 0 24 0 0 11 0 0 6 0 0 0 1 0 0 11 0 0 24 0 0 24 0 0 50 0 0 50 0 0 50 0 0 50 0 0 50 0 0 147 0 0 147 0 0 147 0 0 147 0 
50 0 0 50 0 0 50 0 0 50 0 0 50 0 0 50 0 0 50 0 0 50 0 0 147 0 0 147 0 0 147 0 0 147 0 0 147 0 0 147 0 0 147 0 0 147 0 0 147 0 0 147 0 0 147 0 0 147 0 0 147 0 0 147 0 0 147 0 0 147 0 0 147 0 0 147 0 0 147 0 0 147 0 0 147 0 0 147 0 0 147 0 0 147 0 0 147 0 0 147 0 0 147 0 0 147 0 0 147 0 0 147 0 0 147 0 0 50 0 0 50 0 0 50 0 0 50 0 0 50 0 0 24 0 0 24 0 0 11 0 0 6 0 0 0 1 0 0 11 0 0 11 0 0 24 0 0 24 0 0 50 0 0 50 0 0 50 0 0 50 0 0 50 0 0 147 0 0 147 0 0 147 0 
50 0 0 50 0 0 50 0 0 50 0 0 50 0 0 50 0 0 50 0 0 50 0 0 50 0 0 147 0 0 147 0 0 147 0 0 147 0 0 147 0 0 147 0 0 147 0 0 147 0 0 147 0 0 147 0 0 147 0 0 147 0 0 147 0 0 147 0 0 147 0 0 147 0 0 147 0 0 147 0 0 147 0 0 147 0 0 147 0 0 147 0 0 147 0 0 147 0 0 147 0 0 147 0 0 147 0 0 147 0 0 147 0 0 50 0 0 50 0 0 50 0 0 50 0 0 50 0 0 24 0 0 24 0 0 24 0 0 11 0 0 6 0 0 0 1 0 0 11 0 0 11 0 0 24 0 0 24 0 0 50 0 0 50 0 0 50 0 0 50 0 0 50 0 0 50 0 0 147 0 0 147 0 
50 0 0 50 0 0 50 0 0 50 0 0 50 0 0 50 0 0 50 0 0 50 0 0 50 0 0 50 0 0 147 0 0 147 0 0 147 0 0 147 0 0 147 0 0 147 0 0 147 0 0 147 0 0 147 0 0 147 0 0 147 0 0 147 0 0 147 0 0 147 0 0 147 0 0 147 0 0 147 0 0 147 0 0 147 0 0 147 0 0 147 0 0 147 0 0 147 0 0 147 0 0 147 0 0 147 0 0 147 0 0 50 0 0 50 0 0 50 0 0 50 0 0 50 0 0 50 0 0 24 0 0 24 0 0 24 0 0 11 0 0 6 0 0 0 1 0 0 6 0 0 11 0 0 24 0 0 24 0 0 24 0 0 50 0 0 50 0 0 50 0 0 50 0 0 50 0 0 50 0 0 147 0 
50 0 0 50 0 0 50 0 0 50 0 0 50 0 0 50 0 0 50 0 0 50 0 0 50 0 0 50 0 0 50 0 0 147 0 0 147 0 0 147 0 0 147 0 0 147 0 0 147 0 0 147 0 0 147 0 0 147 0 0 147 0 0 147 0 0 147 0 0 147 0 0 147 0 0 147 0 0 147 0 0 147 0 0 147 0 0 147 0 0 147 0 0 147 0 0 147 0 0 147 0 0 147 0 0 50 0 0 50 0 0 50 0 0 50 0 0 50 0 0 50 0 0 50 0 0 50 0 0 24 0 0 24 0 0 24 0 0 11 0 0 6 0 0 0 1 0 0 6 0 0 11 0 0 24 0 0 24 0 0 24 0 0 50 0 0 50 0 0 50 0 0 50 0 0 50 0 0 50 0 0 50 0 
50 0 0 50 0 0 50 0 0 50 0 0 50 0 0 50 0 0 50 0 0 50 0 0 50 0 0 50 0 0 50 0 0 50 0 0 147 0 0 147 0 0 147 0 0 147 0 0 147 0 0 147 0 0 147 0 0 147 0 0 147 0 0 147 0 0 147 0 0 147 0 0 147 0 0 147 0 0 147 0 0 147 0 0 147 0 0 147 0 0 147 0 0 147 0 0 147 0 0 147 0 0 50 0 0 50 0 0 50 0 0 50 0 0 50 0 0 50 0 0 50 0 0 50 0 0 24 0 0 24 0 0 24 0 0 11 0 0 11 0 0 6 0 0 0 1 0 0 6 0 0 11 0 0 24 0 0 24 0 0 24 0 0 50 0 0 50 0 0 50 0 0 50 0 0 50 0 0 50 0 0 50 0 
50 0 0 50 0 0 50 0 0 50 0 0 50 0 0 50 0 0 50 0 0 50 0 0 50 0 0 50 0 0 50 0 0 50 0 0 50 0 0 50 0 0 147 0 0 147 0 0 147 0 0 147 0 0 147 0 0 147 0 0 147 0 0 147 0 0 147 0 0 147 0 0 147 0 0 147 0 0 147 0 0 147 0 0 147 0 0 147 0 0 147 0 0 147 0 0 50 0 0 50 0 0 50 0 0 50 0 0 50 0 0 50 0 0 50 0 0 50 0 0 50 0 0 50 0 0 24 0 0 24 0 0 24 0 0 11 0 0 11 0 0 6 0 0 0 0 0 0 6 0 0 11 0 0 24 0 0 24 0 0 24 0 0 24 0 0 50 0 0 50 0 0 50 0 0 50 0 0 50 0 0 50 0 
50 0 0 50 0 0 50 0 0 50 0 0 50 0 0 50 0 0 50 0 0 50 0 0 50 0 0 50 0 0 50 0 0 50 0 0 50 0 0 50 0 0 50 0 0 50 0 0 50 0 0 147 0 0 147 0 0 147 0 0 147 0 0 147 0 0 147 0 0 147 0 0 147 0 0 147 0 0 147 0 0 147 0 0 147 0 0 50 0 0 50 0 0 50 0 0 50 0 0 50 0 0 50 0 0 50 0 0 50 0 0 50 0 0 50 0 0 50 0 0 50 0 0 24 0 0 24 0 0 24 0 0 24 0 0 11 0 0 11 0 0 3 0 0 0 0 0 0 6 0 0 11 0 0 11 0 0 24 0 0 24 0 0 24 0 0 50 0 0 50 0 0 50 0 0 50 0 0 50 0 0 50 0 
50 0 0 50 0 0 50 0 0 50 0 0 50 0 0 50 0 0 50 0 0 50 0 0 50 0 0 50 0 0 50 0 0 50 0 0 50 0 0 50 0 0 50 0 0 50 0 0 50 0 0 50 0 0 50 0 0 50 0 0 50 0 0 50 0 0 50 0 0 50 0 0 50 0 0 50 0 0 50 0 0 50 0 0 50 0 0 50 0 0 50 0 0 50 0 0 50 0 0 50 0 0 50 0 0 50 0 0 50 0 0 50 0 0 50 0 0 50 0 0 50 0 0 24 0 0 24 0 0 24 0 0 24 0 0 11 0 0 11 0 0 3 0 0 0 0 0 0 6 0 0 11 0 0 11 0 0 24 0 0 24 0 0 24 0 0 24 0 0 50 0 0 50 0 0 50 0 0 50 0 0 50 0 
50 0 0 50 0 0 50 0 0 50 0 0 50 0 0 50 0 0 50 0 0 50 0 0 50 0 0 50 0 0 50 0 0 50 0 0 50 0 0 50 0 0 50 0 0 50 0 0 50 0 0 50 0 0 50 0 0 50 0 0 50 0 0 50 0 0 50 0 0 50 0 0 50 0 0 50 0 0 50 0 0 50 0 0 50 0 0 50 0 0 50 0 0 50 0 0 50 0 0 50 0 0 50 0 0 50 0 0 50 0 0 50 0 0 50 0 0 50 0 0 24 0 0 24 0 0 24 0 0 24 0 0 11 0 0 11 0 0 6 0 0 3 0 0 0 0 0 0 6 0 0 11 0 0 11 0 0 24 0 0 24 0 0 24 0 0 24 0 0 50 0 0 50 0 0 50 0 0 50 0 0 50 0 
50 0 0 50 0 0 50 0 0 50 0 0 50 0 0 50 0 0 50 0 0 50 0 0 50 0 0 50 0 0 50 0 0 50 0 0 50 0 0 50 0 0 50 0 0 50 0 0 50 0 0 50 0 0 50 0 0 50 0 0 50 0 0 50 0 0 50 0 0 50 0 0 50 0 0 50 0 0 50 0 0 50 0 0 50 0 0 50 0 0 50 0 0 50 0 0 50 0 0 50 0 0 50 0 0 50 0 0 50 0 0 50 0 0 50 0 0 50 0 0 24 0 0 24 0 0 24 0 0 24 0 0 11 0 0 11 0 0 6 0 0 3 0 0 0 0 0 0 6 0 0 11 0 0 11 0 0 24 0 0 24 0 0 24 0 0 24 0 0 24 0 0 50 0 0 50 0 0 50 0 0 50 0 
50 0 0 50 0 0 50 0 0 50 0 0 50 0 0 50 0 0 50 0 0 50 0 0 50 0 0 50 0 0 50 0 0 50 0 0 50 0 0 50 0 0 50 0 0 50 0 0 50 0 0 50 0 0 50 0 0 50 0 0 50 0 0 50 0 0 50 0 0 50 0 0 50 0 0 50 0 0 50 0 0 50 0 0 50 0 0 50 0 0 50 0 0 50 0 0 50 0 0 50 0 0 50 0 0 50 0 0 50 0 0 50 0 0 50 0 0 24 0 0 24 0 0 24 0 0 24 0 0 24 0 0 11 0 0 11 0 0 6 0 0 3 0 0 0 0 0 0 6 0 0 11 0 0 11 0 0 11 0 0 24 0 0 24 0 0 24 0 0 24 0 0 24 0 0 50 0 0 50 0 0 50 0 
50 0 0 50 0 0 50 0 0 50 0 0 50 0 0 50 0 0 50 0 0 50 0 0 50 0 0 50 0 0 50 0 0 50 0 0 50 0 0 50 0 0 50 0 0 50 0 0 50 0 0 50 0 0 50 0 0 50 0 0 50 0 0 50 0 0 50 0 0 50 0 0 50 0 0 50 0 0 50 0 0 50 0 0 50 0 0 50 0 0 50 0 0 50 0 0 50 0 0 50 0 0 50 0 0 50 0 0 50 0 0 50 0 0 24 0 0 24 0 0 24 0 0 24 0 0 24 0 0 24 0 0 11 0 0 11 0 0 6 0 0 3 0 0 0 0 0 0 6 0 0 6 0 0 11 0 0 11 0 0 24 0 0 24 0 0 24 0 0 24 0 0 24 0 0 50 0 0 50 0 0 50 0 
50 0 0 50 0 0 50 0 0 50 0 0 50 0 0 50 0 0 50 0 0 50 0 0 50 0 0 50 0 0 50 0 0 50 0 0 50 0 0 50 0 0 50 0 0 50 0 0 50 0 0 50 0 0 50 0 0 50 0 0 50 0 0 50 0 0 50 0 0 50 0 0 50 0 0 50 0 0 50 0 0 50 0 0 50 0 0 50 0 0 50 0 0 50 0 0 50 0 0 50 0 0 50 0 0 50 0 0 50 0 0 50 0 0 24 0 0 24 0 0 24 0 0 24 0 0 24 0 0 11 0 0 11 0 0 11 0 0 6 0 0 3 0 0 0 0 0 0 3 0 0 6 0 0 11 0 0 11 0 0 24 0 0 24 0 0 24 0 0 24 0 0 24 0 0 24 0 0 50 0 0 50 0 
50 0 0 50 0 0 50 0 0 50 0 0 50 0 0 50 0 0 50 0 0 50 0 0 50 0 0 50 0 0 50 0 0 50 0 0 50 0 0 50 0 0 50 0 0 50 0 0 50 0 0 50 0 0 50 0 0 50 0 0 50 0 0 50 0 0 50 0 0 50 0 0 50 0 0 50 0 0 50 0 0 50 0 0 50 0 0 50 0 0 50 0 0 50 0 0 50 0 0 50 0 0 50 0 0 50 0 0 50 0 0 24 0 0 24 0 0 24 0 0 24 0 0 24 0 0 24 0 0 11 0 0 11 0 0 11 0 0 6 0 0 3 0 0 0 0 0 0 3 0 0 6 0 0 11 0 0 11 0 0 11 0 0 24 0 0 24 0 0 24 0 0 24 0 0 24 0 0 24 0 0 50 0 
50 0 0 50 0 0 50 0 0 50 0 0 50 0 0 50 0 0 50 0 0 50 0 0 50 0 0 50 0 0 50 0 0 50 0 0 50 0 0 50 0 0 50 0 0 50 0 0 50 0 0 50 0 0 50 0 0 50 0 0 50 0 0 50 0 0 50 0 0 50 0 0 50 0 0 50 0 0 50 0 0 50 0 0 50 0 0 50 0 0 50 0 0 50 0 0 50 0 0 50 0 0 50 0 0 50 0 0 24 0 0 24 0 0 24 0 0 24 0 0 24 0 0 24 0 0 24 0 0 11 0 0 11 0 0 11 0 0 6 0 0 3 0 0 0 0 0 0 3 0 0 6 0 0 11 0 0 11 0 0 11 0 0 24 0 0 24 0 0 24 0 0 24 0 0 24 0 0 24 0 0 24 0 
50 0 0 50 0 0 50 0 0 50 0 0 50 0 0 50 0 0 50 0 0 50 0 0 50 0 0 50 0 0 50 0 0 50 0 0 50 0 0 50 0 0 50 0 0 50 0 0 50 0 0 50 0 0 50 0 0 50 0 0 50 0 0 50 0 0 50 0 0 50 0 0 50 0 0 50 0 0 50 0 0 50 0 0 50 0 0 50 0 0 50 0 0 50 0 0 50 0 0 50 0 0 50 0 0 24 0 0 24 0 0 24 0 0 24 0 0 24 0 0 24 0 0 24 0 0 11 0 0 11 0 0 11 0 0 6 0 0 6 0 0 3 0 0 0 0 0 0 3 0 0 6 0 0 11 0 0 11 0 0 11 0 0 24 0 0 24 0 0 24 0 0 24 0 0 24 0 0 24 0 0 24 0 
50 0 0 50 0 0 50 0 0 50 0 0 50 0 0 50 0 0 50 0 0 50 0 0 50 0 0 50 0 0 50 0 0 50 0 0 50 0 0 50 0 0 50 0 0 50 0 0 50 0 0 50 0 0 50 0 0 50 0 0 50 0 0 50 0 0 50 0 0 50 0 0 50 0 0 50 0 0 50 0 0 50 0 0 50 0 0 50 0 0 50 0 0 50 0 0 50 0 0 50 0 0 24 0 0 24 0 0 24 0 0 24 0 0 24 0 0 24 0 0 24 0 0 24 0 0 11 0 0 11 0 0 11 0 0 6 0 0 6 0 0 3 0 0 0 0 0 0 3 0 0 6 0 0 11 0 0 11 0 0 11 0 0 11 0 0 24 0 0 24 0 0 24 0 0 24 0 0 24 0 0 24 0 
