P3
51 51
255
143 134 123 64 128 107 126 134 134 127 127 114 140 149 149 137 146 146 130 130 117 69 138 115 130 130 117 137 122 105 135 121 104 63 127 106 146 130 112 153 137 118 153 137 118 160 143 123 160 143 123 172 154 132 172 154 132 172 154 132 172 154 132 172 154 132 193 173 148 193 173 148 193 173 148 193 173 148 193 173 148 193 173 148 193 173 148 172 154 132 172 154 132 172 154 132 172 154 132 172 154 132 160 143 123 160 143 123 153 137 118 153 137 118 146 130 112 120 127 127 135 121 104 137 122 105 133 125 114 130 138 138 133 125 114 72 146 121 74 149 124 130 122 112 67 134 112 121 128 128 140 140 126 
146 137 125 143 134 123 139 131 120 122 130 130 131 131 118 134 142 142 130 138 138 122 122 110 125 125 112 123 123 111 132 124 113 146 137 125 132 124 113 149 133 114 153 137 118 160 143 123 160 143 123 172 154 132 172 154 132 172 154 132 172 154 132 193 173 148 193 173 148 193 173 148 193 173 148 193 173 148 193 173 148 193 173 148 193 173 148 193 173 148 172 154 132 172 154 132 172 154 132 172 154 132 160 143 123 160 143 123 153 137 118 149 133 114 129 129 116 143 143 128 129 129 116 126 118 108 128 120 110 125 117 107 69 138 115 71 142 118 134 126 115 65 130 108 137 137 123 140 140 126 143 143 128 
146 137 125 146 137 125 143 134 123 141 132 121 139 131 120 138 130 119 134 126 115 129 121 111 120 128 128 64 128 107 68 137 113 131 123 113 141 132 121 149 133 114 153 137 118 160 143 123 160 143 123 172 154 132 172 154 132 172 154 132 193 173 148 193 173 148 193 173 148 193 173 148 193 173 148 193 173 148 193 173 148 193 173 148 193 173 148 193 173 148 193 173 148 172 154 132 172 154 132 172 154 132 160 143 123 160 143 123 153 137 118 149 133 114 138 138 124 129 129 116 129 137 137 121 128 128 63 128 106 126 126 114 131 131 118 135 135 121 137 137 123 138 138 124 140 140 126 143 143 128 143 143 128 
150 141 129 146 137 125 146 137 125 146 137 125 143 134 123 141 132 121 129 137 137 133 119 102 120 127 127 65 131 109 146 130 112 153 153 138 71 142 118 146 130 112 153 137 118 160 143 123 160 143 123 172 154 132 172 154 132 193 173 148 193 173 148 193 173 148 193 173 148 193 173 148 193 173 148 193 173 148 193 173 148 193 173 148 193 173 148 193 173 148 193 173 148 193 173 148 172 154 132 172 154 132 160 143 123 160 143 123 153 137 118 146 130 112 134 142 142 156 147 134 146 130 112 123 131 131 63 127 106 133 119 102 68 137 113 138 138 124 140 140 126 143 143 128 143 143 128 143 143 128 147 147 132 
150 141 129 150 141 129 150 141 129 146 137 125 146 137 125 141 132 121 143 128 110 143 143 128 134 142 142 121 128 128 74 149 124 138 138 124 129 129 116 146 130 112 153 137 118 160 143 123 160 143 123 172 154 132 172 154 132 193 173 148 193 173 148 193 173 148 193 173 148 193 173 148 193 173 148 216 193 166 193 173 148 193 173 148 193 173 148 193 173 148 193 173 148 193 173 148 172 154 132 172 154 132 160 143 123 160 143 123 153 137 118 146 130 112 131 123 113 141 132 121 140 149 149 64 128 106 71 142 118 146 137 125 143 128 110 138 138 124 143 143 128 143 143 128 147 147 132 147 147 132 147 147 132 
150 141 129 150 141 129 150 141 129 150 141 129 150 141 129 146 137 125 135 135 121 130 116 100 140 149 149 140 149 149 69 140 116 122 129 129 133 119 102 137 122 105 131 117 100 153 137 118 160 143 123 172 154 132 172 154 132 193 173 148 193 173 148 193 173 148 216 193 166 216 193 166 216 193 166 216 193 166 216 193 166 216 193 166 216 193 166 193 173 148 193 173 148 193 173 148 172 154 132 172 154 132 160 143 123 153 137 118 131 117 100 137 122 105 133 119 102 64 129 107 132 140 140 74 149 124 74 149 124 130 116 100 138 130 119 143 143 128 147 147 132 147 147 132 147 147 132 147 147 132 147 147 132 
156 147 134 156 147 134 156 147 134 150 141 129 150 141 129 150 141 129 146 137 125 139 131 120 127 135 135 132 140 140 130 138 138 65 131 109 130 116 100 130 138 138 133 125 114 149 133 114 160 143 123 172 154 132 193 173 148 193 173 148 193 173 148 216 193 166 216 193 166 216 193 166 216 193 166 216 193 166 216 193 166 216 193 166 216 193 166 216 193 166 193 173 148 193 173 148 193 173 148 172 154 132 160 143 123 149 133 114 130 130 117 69 138 115 130 116 100 123 131 131 69 138 115 69 140 116 67 135 112 137 137 123 143 143 128 147 147 132 147 147 132 147 147 132 153 153 138 153 153 138 153 153 138 
156 147 134 156 147 134 156 147 134 156 147 134 156 147 134 150 141 129 150 141 129 150 141 129 146 137 125 141 132 121 134 126 115 131 117 100 120 127 127 134 134 121 143 143 128 143 128 110 160 143 123 172 154 132 193 173 148 193 173 148 193 173 148 216 193 166 216 193 166 216 193 166 216 193 166 216 193 166 216 193 166 216 193 166 216 193 166 216 193 166 193 173 148 193 173 148 193 173 148 172 154 132 160 143 123 143 128 110 146 137 125 137 129 118 63 127 106 131 117 100 131 131 118 138 138 124 143 143 128 147 147 132 147 147 132 147 147 132 153 153 138 153 153 138 153 153 138 153 153 138 153 153 138 
156 147 134 156 147 134 156 147 134 156 147 134 156 147 134 156 147 134 156 147 134 150 141 129 150 141 129 143 134 123 146 130 112 70 141 117 146 130 112 76 153 127 143 143 128 143 128 110 153 137 118 172 154 132 193 173 148 193 173 148 216 193 166 216 193 166 216 193 166 216 193 166 216 193 166 216 193 166 216 193 166 216 193 166 216 193 166 216 193 166 216 193 166 193 173 148 193 173 148 172 154 132 153 137 118 143 128 110 146 137 125 144 153 153 146 130 112 133 141 141 146 130 112 140 140 126 147 147 132 147 147 132 153 153 138 153 153 138 153 153 138 153 153 138 153 153 138 153 153 138 153 153 138 
156 147 134 156 147 134 169 158 145 169 158 145 156 147 134 156 147 134 156 147 134 156 147 134 156 147 134 150 141 129 140 149 149 129 137 137 150 160 160 70 141 117 133 133 119 141 126 108 133 119 102 160 143 123 172 154 132 193 173 148 216 193 166 216 193 166 216 193 166 231 206 177 231 206 177 231 206 177 231 206 177 231 206 177 216 193 166 216 193 166 216 193 166 193 173 148 172 154 132 160 143 123 133 119 102 141 126 108 135 127 116 133 141 141 79 160 133 68 137 113 74 149 124 147 147 132 153 153 138 153 153 138 153 153 138 153 153 138 153 153 138 165 165 148 165 165 148 153 153 138 153 153 138 
169 158 145 169 158 145 169 158 145 169 158 145 169 158 145 169 158 145 169 158 145 169 158 145 156 147 134 156 147 134 150 141 129 143 134 123 129 121 111 126 134 134 64 130 108 125 133 133 135 127 116 153 137 118 172 154 132 193 173 148 216 193 166 216 193 166 231 206 177 231 206 177 231 206 177 231 206 177 231 206 177 231 206 177 231 206 177 216 193 166 216 193 166 193 173 148 172 154 132 153 137 118 133 133 119 66 133 110 122 130 130 67 134 112 126 126 114 140 140 126 147 147 132 153 153 138 153 153 138 165 165 148 165 165 148 165 165 148 165 165 148 165 165 148 165 165 148 165 165 148 165 165 148 
169 158 145 169 158 145 169 158 145 169 158 145 169 158 145 169 158 145 169 158 145 169 158 145 169 158 145 169 158 145 156 147 134 156 147 134 146 137 125 141 126 108 66 133 110 132 140 140 185 185 166 137 122 105 172 154 132 193 173 148 216 193 166 231 206 177 231 206 177 231 206 177 231 206 177 231 206 177 231 206 177 231 206 177 231 206 177 231 206 177 216 193 166 193 173 148 172 154 132 137 122 105 189 178 163 69 140 116 125 133 133 141 126 108 143 143 128 153 153 138 153 153 138 165 165 148 165 165 148 165 165 148 165 165 148 165 165 148 165 165 148 165 165 148 165 165 148 165 165 148 165 165 148 
169 158 145 169 158 145 169 158 145 169 158 145 169 158 145 169 158 145 169 158 145 169 158 145 169 158 145 169 158 145 169 158 145 169 158 145 156 147 134 134 134 121 140 149 149 132 124 113 135 121 104 143 128 110 153 137 118 193 173 148 216 193 166 231 206 177 231 206 177 231 206 177 240 215 185 240 215 185 240 215 185 231 206 177 231 206 177 231 206 177 216 193 166 193 173 148 153 137 118 143 128 110 135 121 104 129 129 116 74 149 124 137 129 118 153 153 138 165 165 148 165 165 148 165 165 148 165 165 148 165 165 148 165 165 148 165 165 148 165 165 148 165 165 148 165 165 148 165 165 148 165 165 148 
169 158 145 169 158 145 169 158 145 169 158 145 189 178 163 189 178 163 189 178 163 189 178 163 189 178 163 189 178 163 189 178 163 189 178 163 169 158 145 156 147 134 140 125 107 68 137 113 124 132 132 126 133 133 120 128 128 193 173 148 216 193 166 231 206 177 231 206 177 240 215 185 240 215 185 240 215 185 240 215 185 240 215 185 231 206 177 231 206 177 216 193 166 193 173 148 63 128 106 66 133 111 65 132 109 129 137 137 140 125 107 153 153 138 165 165 148 185 185 166 185 185 166 185 185 166 185 185 166 185 185 166 185 185 166 185 185 166 185 185 166 165 165 148 165 165 148 165 165 148 165 165 148 
169 158 145 169 158 145 189 178 163 189 178 163 189 178 163 189 178 163 189 178 163 189 178 163 189 178 163 189 178 163 189 178 163 189 178 163 189 178 163 189 178 163 169 158 145 141 132 121 124 124 111 76 153 127 165 165 148 172 154 132 216 193 166 231 206 177 240 215 185 240 215 185 240 215 185 240 215 185 240 215 185 240 215 185 240 215 185 231 206 177 216 193 166 172 154 132 169 158 145 144 153 153 126 119 109 138 138 124 165 165 148 185 185 166 185 185 166 185 185 166 185 185 166 185 185 166 185 185 166 185 185 166 185 185 166 185 185 166 185 185 166 185 185 166 185 185 166 165 165 148 165 165 148 
169 158 145 189 178 163 189 178 163 189 178 163 189 178 163 189 178 163 189 178 163 189 178 163 189 178 163 212 199 182 212 199 182 212 199 182 212 199 182 189 178 163 189 178 163 169 158 145 153 153 138 144 153 153 129 129 116 150 141 129 193 173 148 231 206 177 240 215 185 240 215 185 246 220 189 246 220 189 246 220 189 240 215 185 240 215 185 231 206 177 193 173 148 147 147 132 132 124 113 76 153 127 156 147 134 165 165 148 185 185 166 185 185 166 207 207 186 207 207 186 207 207 186 207 207 186 185 185 166 185 185 166 185 185 166 185 185 166 185 185 166 185 185 166 185 185 166 185 185 166 165 165 148 
169 158 145 189 178 163 189 178 163 189 178 163 189 178 163 189 178 163 189 178 163 212 199 182 212 199 182 212 199 182 212 199 182 212 199 182 212 199 182 212 199 182 212 199 182 212 199 182 189 178 163 146 137 125 65 132 109 153 153 138 160 143 123 231 206 177 240 215 185 246 220 189 246 220 189 246 220 189 246 220 189 246 220 189 240 215 185 231 206 177 160 143 123 156 147 134 124 132 132 143 143 128 185 185 166 207 207 186 207 207 186 207 207 186 207 207 186 207 207 186 207 207 186 207 207 186 207 207 186 207 207 186 185 185 166 185 185 166 185 185 166 185 185 166 185 185 166 185 185 166 165 165 148 
189 178 163 189 178 163 189 178 163 189 178 163 189 178 163 189 178 163 212 199 182 212 199 182 212 199 182 212 199 182 212 199 182 212 199 182 212 199 182 226 212 194 226 212 194 226 212 194 212 199 182 189 178 163 124 124 111 67 134 112 133 125 114 216 193 166 240 215 185 246 220 189 250 223 192 250 223 192 250 223 192 246 220 189 240 215 185 216 193 166 130 130 117 126 134 134 127 119 109 185 185 166 207 207 186 222 222 199 222 222 199 222 222 199 207 207 186 207 207 186 207 207 186 207 207 186 207 207 186 207 207 186 207 207 186 185 185 166 185 185 166 185 185 166 185 185 166 185 185 166 185 185 166 
189 178 163 189 178 163 189 178 163 189 178 163 189 178 163 189 178 163 212 199 182 212 199 182 212 199 182 212 199 182 212 199 182 226 212 194 226 212 194 226 212 194 226 212 194 226 212 194 226 212 194 226 212 194 212 199 182 149 133 114 85 172 143 160 143 123 240 215 185 250 223 192 250 223 192 253 226 194 250 223 192 250 223 192 240 215 185 160 143 123 162 172 172 149 133 114 207 207 186 222 222 199 222 222 199 222 222 199 222 222 199 222 222 199 222 222 199 222 222 199 207 207 186 207 207 186 207 207 186 207 207 186 207 207 186 185 185 166 185 185 166 185 185 166 185 185 166 185 185 166 185 185 166 
189 178 163 189 178 163 189 178 163 189 178 163 189 178 163 212 199 182 212 199 182 212 199 182 212 199 182 212 199 182 226 212 194 226 212 194 226 212 194 226 212 194 236 221 203 236 221 203 236 221 203 236 221 203 236 221 203 212 199 182 135 135 121 124 124 112 231 206 177 250 223 192 253 226 194 253 226 194 253 226 194 250 223 192 231 206 177 127 119 109 138 130 119 207 207 186 231 231 207 231 231 207 231 231 207 231 231 207 231 231 207 222 222 199 222 222 199 222 222 199 222 222 199 207 207 186 207 207 186 207 207 186 207 207 186 207 207 186 185 185 166 185 185 166 185 185 166 185 185 166 185 185 166 
189 178 163 189 178 163 189 178 163 189 178 163 189 178 163 212 199 182 212 199 182 212 199 182 212 199 182 226 212 194 226 212 194 226 212 194 226 212 194 236 221 203 236 221 203 236 221 203 236 221 203 241 227 208 241 227 208 236 221 203 189 178 163 182 193 193 138 138 124 246 220 189 253 226 194 254 227 195 253 226 194 246 220 189 141 132 121 96 193 160 185 185 166 231 231 207 237 237 212 237 237 212 231 231 207 231 231 207 231 231 207 231 231 207 222 222 199 222 222 199 222 222 199 222 222 199 207 207 186 207 207 186 207 207 186 207 207 186 185 185 166 185 185 166 185 185 166 185 185 166 185 185 166 
169 158 145 189 178 163 189 178 163 189 178 163 189 178 163 212 199 182 212 199 182 212 199 182 212 199 182 226 212 194 226 212 194 226 212 194 226 212 194 236 221 203 236 221 203 236 221 203 241 227 208 241 227 208 241 227 208 245 230 211 241 227 208 125 117 107 122 246 205 216 193 166 250 223 192 253 226 194 250 223 192 216 193 166 232 246 246 122 122 110 237 237 212 240 240 216 237 237 212 237 237 212 237 237 212 231 231 207 231 231 207 231 231 207 222 222 199 222 222 199 222 222 199 222 222 199 207 207 186 207 207 186 207 207 186 207 207 186 185 185 166 185 185 166 185 185 166 185 185 166 165 165 148 
169 158 145 189 178 163 189 178 163 189 178 163 189 178 163 189 178 163 212 199 182 212 199 182 212 199 182 226 212 194 226 212 194 226 212 194 226 212 194 236 221 203 236 221 203 241 227 208 241 227 208 245 230 211 245 230 211 245 230 211 248 233 213 245 230 211 150 141 129 128 120 110 231 231 207 240 215 185 236 221 203 126 126 113 147 147 132 240 240 216 243 243 218 240 240 216 240 240 216 240 240 216 237 237 212 237 237 212 231 231 207 231 231 207 222 222 199 222 222 199 222 222 199 222 222 199 207 207 186 207 207 186 207 207 186 185 185 166 185 185 166 185 185 166 185 185 166 185 185 166 165 165 148 
169 158 145 169 158 145 189 178 163 189 178 163 189 178 163 189 178 163 212 199 182 212 199 182 212 199 182 212 199 182 226 212 194 226 212 194 226 212 194 236 221 203 236 221 203 241 227 208 241 227 208 245 230 211 245 230 211 248 233 213 249 234 214 248 233 213 216 193 166 203 216 216 135 135 121 153 137 118 138 130 119 107 216 179 216 193 166 243 243 218 244 244 219 243 243 218 240 240 216 240 240 216 237 237 212 237 237 212 231 231 207 231 231 207 222 222 199 222 222 199 222 222 199 207 207 186 207 207 186 207 207 186 207 207 186 185 185 166 185 185 166 185 185 166 185 185 166 165 165 148 165 165 148 
169 158 145 169 158 145 189 178 163 189 178 163 189 178 163 189 178 163 189 178 163 212 199 182 212 199 182 212 199 182 226 212 194 226 212 194 226 212 194 236 221 203 236 221 203 236 221 203 241 227 208 245 230 211 245 230 211 248 233 213 249 234 214 248 233 213 236 221 203 146 130 112 137 122 105 133 118 102 137 122 105 146 130 112 231 231 207 243 243 218 244 244 219 243 243 218 240 240 216 240 240 216 237 237 212 231 231 207 231 231 207 231 231 207 222 222 199 222 222 199 222 222 199 207 207 186 207 207 186 207 207 186 185 185 166 185 185 166 185 185 166 185 185 166 185 185 166 165 165 148 165 165 148 
169 158 145 169 158 145 169 158 145 169 158 145 189 178 163 189 178 163 189 178 163 189 178 163 212 199 182 212 199 182 212 199 182 212 199 182 226 212 194 226 212 194 236 221 203 236 221 203 236 221 203 241 227 208 241 227 208 245 230 211 245 230 211 138 123 106 240 215 185 153 137 118 133 118 102 0 0 0 133 118 102 153 137 118 240 215 185 138 123 106 240 240 216 240 240 216 237 237 212 237 237 212 231 231 207 231 231 207 231 231 207 222 222 199 222 222 199 207 207 186 207 207 186 207 207 186 207 207 186 185 185 166 185 185 166 185 185 166 185 185 166 165 165 148 165 165 148 165 165 148 165 165 148 
169 158 145 169 158 145 169 158 145 169 158 145 169 158 145 169 158 145 189 178 163 189 178 163 189 178 163 189 178 163 212 199 182 212 199 182 212 199 182 212 199 182 226 212 194 226 212 194 226 212 194 226 212 194 226 212 194 226 212 194 231 206 177 135 127 116 237 237 212 125 133 133 134 120 103 133 118 102 134 120 103 66 133 110 241 227 208 133 133 119 231 206 177 222 222 199 222 222 199 222 222 199 222 222 199 222 222 199 222 222 199 207 207 186 207 207 186 207 207 186 207 207 186 185 185 166 185 185 166 185 185 166 185 185 166 165 165 148 165 165 148 165 165 148 165 165 148 165 165 148 165 165 148 
156 147 134 156 147 134 156 147 134 169 158 145 169 158 145 169 158 145 169 158 145 169 158 145 169 158 145 169 158 145 189 178 163 169 158 145 189 178 163 189 178 163 140 140 126 156 147 134 162 172 172 193 173 148 66 133 110 153 153 138 138 123 106 182 193 193 131 131 118 140 149 149 130 130 117 153 137 118 133 125 114 74 149 124 134 126 115 96 193 160 138 123 106 156 147 134 125 133 133 193 173 148 85 172 143 153 153 138 143 134 123 185 185 166 185 185 166 165 165 148 185 185 166 165 165 148 165 165 148 165 165 148 165 165 148 165 165 148 165 165 148 165 165 148 153 153 138 153 153 138 153 153 138 
156 147 134 156 147 134 156 147 134 156 147 134 156 147 134 156 147 134 156 147 134 150 141 129 146 137 125 150 141 129 150 141 129 182 193 193 143 128 110 135 127 116 133 118 102 74 149 124 63 128 106 107 216 179 144 153 153 182 193 193 232 246 246 235 250 250 238 253 253 235 250 250 226 212 194 253 226 194 222 222 199 124 250 208 126 253 210 124 250 208 122 246 205 96 193 160 76 153 127 203 216 216 120 128 128 140 149 149 133 118 102 133 133 119 143 128 110 96 193 160 147 147 132 147 147 132 143 143 128 147 147 132 153 153 138 153 153 138 153 153 138 153 153 138 153 153 138 153 153 138 153 153 138 
150 141 129 150 141 129 146 137 125 137 129 118 139 131 120 141 132 121 146 137 125 135 127 116 150 141 129 160 143 123 140 125 107 123 131 131 115 231 192 138 138 124 129 121 111 107 216 179 150 160 160 162 172 172 226 240 240 232 246 246 235 250 250 238 253 253 239 254 254 238 253 253 124 124 111 130 116 100 126 119 108 126 253 210 126 254 211 126 253 210 124 250 208 122 246 205 119 240 200 85 172 143 79 160 133 203 216 216 126 126 114 141 132 121 217 231 231 65 131 109 140 125 107 160 143 123 147 147 132 133 133 119 143 143 128 138 138 124 137 137 123 134 134 121 143 143 128 147 147 132 147 147 132 
139 131 120 143 134 123 141 132 121 137 146 146 71 143 119 153 137 118 142 127 109 132 124 113 131 117 100 153 153 138 137 137 123 124 132 132 65 130 108 76 153 127 150 160 160 162 172 172 203 216 216 226 240 240 232 246 246 232 246 246 235 250 250 238 253 253 238 253 253 238 253 253 217 231 231 250 223 192 115 231 192 126 253 210 126 253 210 126 253 210 124 250 208 122 246 205 122 246 205 119 240 200 107 216 179 85 172 143 79 160 133 144 153 153 122 130 130 65 132 109 139 131 120 156 147 134 131 117 100 129 129 116 142 127 109 153 137 118 135 143 143 72 146 121 138 138 124 140 140 126 137 137 123 
146 130 112 140 125 107 134 126 115 126 133 133 135 121 104 74 149 124 137 137 123 126 126 114 129 116 99 74 149 124 76 153 127 137 146 146 135 127 116 162 172 172 182 193 193 203 216 216 217 231 231 226 240 240 232 246 246 232 246 246 235 250 250 235 250 250 235 250 250 235 250 250 217 231 231 140 125 107 115 231 192 124 250 208 124 250 208 124 250 208 124 250 208 122 246 205 122 246 205 119 240 200 115 231 192 107 216 179 96 193 160 85 172 143 133 133 119 72 146 121 144 153 153 140 149 149 129 116 99 129 121 111 139 131 120 140 149 149 135 121 104 66 133 111 131 131 118 140 125 107 146 130 112 
149 133 114 140 125 107 133 119 102 127 114 98 126 118 108 128 114 98 72 146 121 64 129 107 138 130 119 122 130 130 129 121 111 162 172 172 182 193 193 182 193 193 203 216 216 217 231 231 226 240 240 226 240 240 232 246 246 232 246 246 235 250 250 235 250 250 235 250 250 232 246 246 169 158 145 134 120 103 165 165 148 122 246 205 124 250 208 124 250 208 124 250 208 122 246 205 122 246 205 119 240 200 119 240 200 115 231 192 107 216 179 96 193 160 96 193 160 85 172 143 126 126 114 64 130 108 135 135 121 121 129 129 137 146 146 128 114 98 123 123 110 127 114 98 133 119 102 140 125 107 149 133 114 
147 147 132 138 138 124 127 119 109 124 132 132 134 120 103 64 129 107 72 146 121 137 146 146 140 149 149 144 153 153 162 172 172 182 193 193 182 193 193 203 216 216 217 231 231 217 231 231 226 240 240 226 240 240 232 246 246 232 246 246 232 246 246 232 246 246 232 246 246 226 240 240 182 193 193 149 133 114 96 193 160 119 240 200 122 246 205 122 246 205 122 246 205 122 246 205 122 246 205 119 240 200 119 240 200 115 231 192 115 231 192 107 216 179 96 193 160 96 193 160 85 172 143 76 153 127 74 149 124 72 146 121 137 146 146 121 129 129 134 120 103 65 132 109 124 124 112 141 132 121 150 141 129 
130 138 138 74 149 124 70 141 117 133 141 141 141 132 121 138 123 106 127 135 135 144 153 153 150 160 160 162 172 172 182 193 193 182 193 193 203 216 216 203 216 216 217 231 231 217 231 231 226 240 240 226 240 240 226 240 240 226 240 240 232 246 246 232 246 246 226 240 240 217 231 231 96 193 160 129 115 99 182 193 193 115 231 192 119 240 200 122 246 205 122 246 205 119 240 200 119 240 200 119 240 200 119 240 200 115 231 192 115 231 192 107 216 179 107 216 179 96 193 160 96 193 160 85 172 143 79 160 133 76 153 127 67 135 112 138 123 106 138 138 124 70 141 117 133 141 141 140 149 149 69 138 115 
64 129 107 72 146 121 138 130 119 137 146 146 137 146 146 140 149 149 150 160 160 150 160 160 162 172 172 182 193 193 182 193 193 203 216 216 203 216 216 203 216 216 217 231 231 217 231 231 217 231 231 226 240 240 226 240 240 226 240 240 226 240 240 226 240 240 226 240 240 217 231 231 144 153 153 143 128 110 76 153 127 115 231 192 119 240 200 119 240 200 119 240 200 119 240 200 119 240 200 119 240 200 115 231 192 115 231 192 115 231 192 107 216 179 107 216 179 107 216 179 96 193 160 96 193 160 85 172 143 79 160 133 79 160 133 74 149 124 72 146 121 72 146 121 135 135 121 137 146 146 121 129 129 
126 118 108 141 132 121 137 146 146 144 153 153 144 153 153 150 160 160 150 160 160 162 172 172 162 172 172 182 193 193 182 193 193 203 216 216 203 216 216 203 216 216 217 231 231 217 231 231 217 231 231 217 231 231 226 240 240 226 240 240 226 240 240 217 231 231 217 231 231 203 216 216 125 125 113 142 127 109 128 120 110 107 216 179 115 231 192 115 231 192 119 240 200 119 240 200 119 240 200 115 231 192 115 231 192 115 231 192 115 231 192 107 216 179 107 216 179 107 216 179 96 193 160 96 193 160 85 172 143 85 172 143 79 160 133 79 160 133 76 153 127 76 153 127 72 146 121 138 138 124 123 123 111 
123 131 131 140 149 149 144 153 153 144 153 153 150 160 160 150 160 160 162 172 172 162 172 172 182 193 193 182 193 193 182 193 193 203 216 216 203 216 216 203 216 216 217 231 231 217 231 231 217 231 231 217 231 231 217 231 231 217 231 231 217 231 231 217 231 231 203 216 216 182 193 193 137 146 146 133 118 102 72 146 121 96 193 160 107 216 179 115 231 192 115 231 192 115 231 192 115 231 192 115 231 192 115 231 192 115 231 192 115 231 192 107 216 179 107 216 179 107 216 179 96 193 160 96 193 160 96 193 160 85 172 143 85 172 143 79 160 133 79 160 133 76 153 127 76 153 127 74 149 124 65 131 109 
140 149 149 144 153 153 144 153 153 150 160 160 150 160 160 162 172 172 162 172 172 162 172 172 182 193 193 182 193 193 182 193 193 203 216 216 203 216 216 203 216 216 203 216 216 217 231 231 217 231 231 217 231 231 217 231 231 217 231 231 217 231 231 203 216 216 203 216 216 162 172 172 156 147 134 160 143 123 153 153 138 85 172 143 107 216 179 107 216 179 115 231 192 115 231 192 115 231 192 115 231 192 115 231 192 115 231 192 107 216 179 107 216 179 107 216 179 107 216 179 96 193 160 96 193 160 96 193 160 85 172 143 85 172 143 85 172 143 79 160 133 79 160 133 76 153 127 76 153 127 74 149 124 
144 153 153 144 153 153 150 160 160 150 160 160 162 172 172 162 172 172 162 172 172 162 172 172 182 193 193 182 193 193 182 193 193 203 216 216 203 216 216 203 216 216 203 216 216 203 216 216 217 231 231 217 231 231 217 231 231 217 231 231 203 216 216 203 216 216 182 193 193 137 146 146 146 130 112 131 117 100 146 130 112 72 146 121 96 193 160 107 216 179 107 216 179 115 231 192 115 231 192 115 231 192 115 231 192 107 216 179 107 216 179 107 216 179 107 216 179 107 216 179 96 193 160 96 193 160 96 193 160 85 172 143 85 172 143 85 172 143 85 172 143 79 160 133 79 160 133 76 153 127 76 153 127 
144 153 153 150 160 160 150 160 160 150 160 160 162 172 172 162 172 172 162 172 172 182 193 193 182 193 193 182 193 193 182 193 193 203 216 216 203 216 216 203 216 216 203 216 216 203 216 216 203 216 216 203 216 216 203 216 216 203 216 216 203 216 216 203 216 216 182 193 193 150 160 160 133 141 141 131 117 101 70 141 117 79 160 133 96 193 160 107 216 179 107 216 179 107 216 179 107 216 179 107 216 179 107 216 179 107 216 179 107 216 179 107 216 179 107 216 179 107 216 179 96 193 160 96 193 160 96 193 160 96 193 160 85 172 143 85 172 143 85 172 143 79 160 133 79 160 133 79 160 133 76 153 127 
150 160 160 150 160 160 150 160 160 162 172 172 162 172 172 162 172 172 162 172 172 182 193 193 182 193 193 182 193 193 182 193 193 182 193 193 203 216 216 203 216 216 203 216 216 203 216 216 203 216 216 203 216 216 203 216 216 203 216 216 203 216 216 182 193 193 162 172 172 144 153 153 146 137 125 146 130 112 143 143 128 76 153 127 85 172 143 96 193 160 107 216 179 107 216 179 107 216 179 107 216 179 107 216 179 107 216 179 107 216 179 107 216 179 107 216 179 96 193 160 96 193 160 96 193 160 96 193 160 96 193 160 85 172 143 85 172 143 85 172 143 85 172 143 79 160 133 79 160 133 79 160 133 
150 160 160 150 160 160 150 160 160 162 172 172 162 172 172 162 172 172 162 172 172 182 193 193 182 193 193 182 193 193 182 193 193 182 193 193 182 193 193 203 216 216 203 216 216 203 216 216 203 216 216 203 216 216 203 216 216 203 216 216 182 193 193 182 193 193 162 172 172 129 137 137 156 147 134 153 137 118 153 153 138 68 137 113 85 172 143 96 193 160 96 193 160 107 216 179 107 216 179 107 216 179 107 216 179 107 216 179 107 216 179 107 216 179 96 193 160 96 193 160 96 193 160 96 193 160 96 193 160 96 193 160 85 172 143 85 172 143 85 172 143 85 172 143 79 160 133 79 160 133 79 160 133 
150 160 160 150 160 160 150 160 160 162 172 172 162 172 172 162 172 172 162 172 172 162 172 172 182 193 193 182 193 193 182 193 193 182 193 193 182 193 193 182 193 193 182 193 193 182 193 193 182 193 193 182 193 193 182 193 193 182 193 193 182 193 193 162 172 172 150 160 160 72 146 121 130 130 117 127 114 98 133 125 114 137 146 146 79 160 133 85 172 143 96 193 160 96 193 160 96 193 160 96 193 160 96 193 160 96 193 160 96 193 160 96 193 160 96 193 160 96 193 160 96 193 160 96 193 160 96 193 160 85 172 143 85 172 143 85 172 143 85 172 143 85 172 143 79 160 133 79 160 133 79 160 133 
150 160 160 150 160 160 150 160 160 162 172 172 162 172 172 162 172 172 162 172 172 162 172 172 182 193 193 182 193 193 182 193 193 182 193 193 182 193 193 182 193 193 182 193 193 182 193 193 182 193 193 182 193 193 182 193 193 182 193 193 182 193 193 162 172 172 150 160 160 140 149 149 129 137 137 133 119 102 68 137 113 74 149 124 79 160 133 85 172 143 96 193 160 96 193 160 96 193 160 96 193 160 96 193 160 96 193 160 96 193 160 96 193 160 96 193 160 96 193 160 96 193 160 96 193 160 96 193 160 85 172 143 85 172 143 85 172 143 85 172 143 85 172 143 79 160 133 79 160 133 79 160 133 
150 160 160 150 160 160 150 160 160 162 172 172 162 172 172 162 172 172 162 172 172 162 172 172 162 172 172 182 193 193 182 193 193 182 193 193 182 193 193 182 193 193 182 193 193 182 193 193 182 193 193 182 193 193 182 193 193 182 193 193 162 172 172 162 172 172 144 153 153 125 125 112 143 134 123 143 128 110 140 140 126 128 120 110 76 153 127 85 172 143 85 172 143 96 193 160 96 193 160 96 193 160 96 193 160 96 193 160 96 193 160 96 193 160 96 193 160 96 193 160 96 193 160 96 193 160 85 172 143 85 172 143 85 172 143 85 172 143 85 172 143 85 172 143 79 160 133 79 160 133 79 160 133 
150 160 160 150 160 160 150 160 160 162 172 172 162 172 172 162 172 172 162 172 172 162 172 172 162 172 172 162 172 172 182 193 193 182 193 193 182 193 193 182 193 193 182 193 193 182 193 193 182 193 193 182 193 193 162 172 172 162 172 172 162 172 172 150 160 160 140 149 149 146 130 112 156 147 134 172 154 132 153 153 138 146 130 112 74 149 124 79 160 133 85 172 143 85 172 143 85 172 143 96 193 160 96 193 160 96 193 160 96 193 160 96 193 160 96 193 160 96 193 160 96 193 160 85 172 143 85 172 143 85 172 143 85 172 143 85 172 143 85 172 143 85 172 143 79 160 133 79 160 133 79 160 133 
150 160 160 150 160 160 150 160 160 162 172 172 162 172 172 162 172 172 162 172 172 162 172 172 162 172 172 162 172 172 162 172 172 182 193 193 182 193 193 182 193 193 182 193 193 182 193 193 182 193 193 162 172 172 162 172 172 162 172 172 150 160 160 150 160 160 130 138 138 130 138 138 134 120 103 129 115 99 134 120 103 69 138 115 69 138 115 79 160 133 79 160 133 85 172 143 85 172 143 85 172 143 96 193 160 96 193 160 96 193 160 96 193 160 96 193 160 96 193 160 85 172 143 85 172 143 85 172 143 85 172 143 85 172 143 85 172 143 85 172 143 85 172 143 79 160 133 79 160 133 79 160 133 
150 160 160 150 160 160 150 160 160 162 172 172 162 172 172 162 172 172 162 172 172 162 172 172 162 172 172 162 172 172 162 172 172 162 172 172 162 172 172 162 172 172 162 172 172 162 172 172 162 172 172 162 172 172 162 172 172 162 172 172 150 160 160 144 153 153 137 146 146 68 137 113 65 131 109 128 115 99 123 131 131 129 137 137 72 146 121 76 153 127 79 160 133 85 172 143 85 172 143 85 172 143 85 172 143 85 172 143 85 172 143 85 172 143 85 172 143 85 172 143 85 172 143 85 172 143 85 172 143 85 172 143 85 172 143 85 172 143 85 172 143 85 172 143 79 160 133 79 160 133 79 160 133 
150 160 160 150 160 160 150 160 160 150 160 160 162 172 172 162 172 172 162 172 172 162 172 172 162 172 172 162 172 172 162 172 172 162 172 172 162 172 172 162 172 172 162 172 172 162 172 172 162 172 172 162 172 172 162 172 172 150 160 160 150 160 160 144 153 153 140 149 149 134 142 142 133 125 114 134 120 103 130 130 117 71 142 118 74 149 124 76 153 127 79 160 133 79 160 133 85 172 143 85 172 143 85 172 143 85 172 143 85 172 143 85 172 143 85 172 143 85 172 143 85 172 143 85 172 143 85 172 143 85 172 143 85 172 143 85 172 143 85 172 143 79 160 133 79 160 133 79 160 133 79 160 133 
150 160 160 150 160 160 150 160 160 150 160 160 150 160 160 162 172 172 162 172 172 162 172 172 162 172 172 162 172 172 162 172 172 162 172 172 162 172 172 162 172 172 162 172 172 162 172 172 162 172 172 162 172 172 150 160 160 150 160 160 150 160 160 144 153 153 135 143 143 135 127 116 139 131 120 142 127 109 137 137 123 133 133 119 71 143 119 76 153 127 79 160 133 79 160 133 79 160 133 85 172 143 85 172 143 85 172 143 85 172 143 85 172 143 85 172 143 85 172 143 85 172 143 85 172 143 85 172 143 85 172 143 85 172 143 85 172 143 79 160 133 79 160 133 79 160 133 79 160 133 79 160 133 
